<svg xmlns="http://www.w3.org/2000/svg" xmlns:xlink="http://www.w3.org/1999/xlink" width="1080" zoomAndPan="magnify" viewBox="0 0 810 809.999993" height="1080" preserveAspectRatio="xMidYMid meet" version="1.0"><defs><clipPath id="ab88497c95"><path d="M 484 574 L 506 574 L 506 601.566406 L 484 601.566406 Z M 484 574 " clip-rule="nonzero"/></clipPath><clipPath id="3e6f4fe235"><path d="M 184 183.066406 L 395 183.066406 L 395 369 L 184 369 Z M 184 183.066406 " clip-rule="nonzero"/></clipPath></defs><path fill="#19b5fe" d="M 99.5625 442.480469 C 89.335938 442.480469 81 434.148438 81 423.929688 C 81 413.707031 89.335938 405.375 99.5625 405.375 C 109.792969 405.375 118.128906 413.707031 118.128906 423.929688 C 118.128906 434.148438 109.792969 442.480469 99.5625 442.480469 Z M 99.5625 414.429688 C 94.328125 414.429688 90.058594 418.695312 90.058594 423.929688 C 90.058594 429.160156 94.328125 433.425781 99.5625 433.425781 C 104.796875 433.425781 109.066406 429.160156 109.066406 423.929688 C 109.066406 418.695312 104.796875 414.429688 99.5625 414.429688 Z M 99.5625 414.429688 " fill-opacity="1" fill-rule="nonzero"/><path fill="#3edc81" d="M 710.4375 356.261719 C 700.207031 356.261719 691.871094 347.929688 691.871094 337.707031 C 691.871094 327.488281 700.207031 319.15625 710.4375 319.15625 C 720.664062 319.15625 729 327.488281 729 337.707031 C 729 347.929688 720.683594 356.261719 710.4375 356.261719 Z M 710.4375 328.210938 C 705.203125 328.210938 700.933594 332.476562 700.933594 337.707031 C 700.933594 342.941406 705.203125 347.207031 710.4375 347.207031 C 715.671875 347.207031 719.941406 342.941406 719.941406 337.707031 C 719.941406 332.476562 715.691406 328.210938 710.4375 328.210938 Z M 710.4375 328.210938 " fill-opacity="1" fill-rule="nonzero"/><path fill="#ffffff" d="M 579.644531 255.433594 L 579.644531 501.535156 C 579.644531 506.847656 575.335938 511.152344 570.019531 511.152344 L 417.726562 511.152344 C 415.652344 503.507812 409.148438 499.683594 402.625 499.683594 L 402.625 245.816406 L 570 245.816406 C 575.335938 245.816406 579.644531 250.121094 579.644531 255.433594 Z M 579.644531 255.433594 " fill-opacity="1" fill-rule="nonzero"/><path fill="#ffffff" d="M 402.644531 245.816406 L 402.644531 499.664062 C 396.121094 499.664062 389.617188 503.488281 387.542969 511.152344 L 235.269531 511.152344 C 229.953125 511.152344 225.644531 506.847656 225.644531 501.535156 L 225.644531 255.433594 C 225.644531 250.121094 229.953125 245.816406 235.269531 245.816406 Z M 402.644531 245.816406 " fill-opacity="1" fill-rule="nonzero"/><path fill="#ffffff" d="M 402.644531 245.816406 L 402.644531 499.664062 C 396.121094 499.664062 389.617188 503.488281 387.542969 511.152344 L 235.269531 511.152344 C 229.953125 511.152344 225.644531 506.847656 225.644531 501.535156 L 225.644531 255.433594 C 225.644531 250.121094 229.953125 245.816406 235.269531 245.816406 Z M 402.644531 245.816406 " fill-opacity="1" fill-rule="nonzero"/><path fill="#61bd79" d="M 402.644531 245.816406 L 402.644531 499.664062 C 398.195312 499.664062 393.765625 501.4375 390.746094 504.976562 C 389.316406 506.648438 388.207031 508.699219 387.542969 511.152344 L 235.25 511.152344 C 231.179688 511.152344 227.679688 508.617188 226.289062 505.015625 C 226.1875 504.835938 226.128906 504.636719 226.066406 504.414062 C 225.785156 503.507812 225.625 502.542969 225.625 501.535156 L 225.625 255.433594 C 225.625 250.121094 229.933594 245.816406 235.25 245.816406 Z M 402.644531 245.816406 " fill-opacity="1" fill-rule="nonzero"/><path fill="#3edc81" d="M 579.644531 255.433594 L 579.644531 501.535156 C 579.644531 506.847656 575.335938 511.152344 570.019531 511.152344 L 417.726562 511.152344 C 415.671875 503.488281 409.148438 499.664062 402.644531 499.664062 L 402.644531 245.816406 L 570.019531 245.816406 C 575.335938 245.816406 579.644531 250.121094 579.644531 255.433594 Z M 579.644531 255.433594 " fill-opacity="1" fill-rule="nonzero"/><path fill="#ffffff" d="M 579.644531 255.433594 L 579.644531 501.535156 C 579.644531 506.265625 576.222656 510.207031 571.710938 511.011719 C 572.113281 509.945312 572.355469 508.78125 572.355469 507.574219 L 572.355469 261.46875 C 572.355469 256.15625 568.046875 251.851562 562.730469 251.851562 L 402.644531 251.851562 L 402.644531 245.816406 L 570.019531 245.816406 C 575.335938 245.816406 579.644531 250.121094 579.644531 255.433594 Z M 579.644531 255.433594 " fill-opacity="0.5686" fill-rule="nonzero"/><path fill="#102770" d="M 387.542969 514.171875 L 235.269531 514.171875 C 228.300781 514.171875 222.625 508.5 222.625 501.535156 L 222.625 255.433594 C 222.625 248.472656 228.300781 242.796875 235.269531 242.796875 L 402.644531 242.796875 C 404.316406 242.796875 405.664062 244.144531 405.664062 245.816406 L 405.664062 499.683594 C 405.664062 501.355469 404.316406 502.703125 402.644531 502.703125 C 398.175781 502.703125 392.316406 505.117188 390.464844 511.9375 C 390.101562 513.246094 388.914062 514.171875 387.542969 514.171875 Z M 235.269531 248.832031 C 231.625 248.832031 228.664062 251.792969 228.664062 255.433594 L 228.664062 501.535156 C 228.664062 505.179688 231.625 508.136719 235.269531 508.136719 L 385.390625 508.136719 C 387.84375 502.019531 393.121094 497.875 399.644531 496.886719 L 399.644531 248.832031 Z M 235.269531 248.832031 " fill-opacity="1" fill-rule="nonzero"/><path fill="#102770" d="M 570.019531 514.171875 L 417.726562 514.171875 C 416.355469 514.171875 415.167969 513.265625 414.804688 511.9375 C 412.972656 505.117188 407.09375 502.703125 402.625 502.703125 C 400.953125 502.703125 399.605469 501.355469 399.605469 499.683594 L 399.605469 245.816406 C 399.605469 244.144531 400.953125 242.796875 402.625 242.796875 L 570 242.796875 C 576.964844 242.796875 582.644531 248.472656 582.644531 255.433594 L 582.644531 501.535156 C 582.664062 508.5 576.988281 514.171875 570.019531 514.171875 Z M 419.898438 508.136719 L 570.019531 508.136719 C 573.664062 508.136719 576.625 505.179688 576.625 501.535156 L 576.625 255.433594 C 576.625 251.792969 573.664062 248.832031 570.019531 248.832031 L 405.664062 248.832031 L 405.664062 496.886719 C 412.1875 497.855469 417.441406 502.019531 419.898438 508.136719 Z M 419.898438 508.136719 " fill-opacity="1" fill-rule="nonzero"/><path fill="#ffffff" d="M 561.625 490.914062 C 508.628906 476.0625 455.636719 476.0625 402.644531 490.914062 L 402.644531 241.125 C 455.636719 222.050781 508.628906 222.050781 561.625 241.125 Z M 561.625 490.914062 " fill-opacity="1" fill-rule="nonzero"/><path fill="#102770" d="M 402.644531 498.679688 L 390.746094 503.992188 L 390.683594 504.03125 L 226.308594 504.03125 C 226.207031 503.851562 226.148438 503.648438 226.085938 503.425781 C 225.804688 502.523438 225.644531 501.554688 225.644531 500.550781 L 226.8125 248.550781 L 245.4375 246.699219 L 401.578125 483.042969 Z M 402.644531 498.679688 " fill-opacity="0.298" fill-rule="nonzero"/><path fill="#102770" d="M 452.699219 467.210938 C 452.699219 470.628906 450.160156 473.507812 446.757812 473.929688 C 432.039062 475.761719 417.34375 478.738281 402.625 482.863281 L 402.625 247.164062 C 418.773438 241.347656 434.917969 237.304688 451.066406 235.03125 C 451.894531 234.910156 452.636719 235.574219 452.636719 236.398438 Z M 452.699219 467.210938 " fill-opacity="0.298" fill-rule="nonzero"/><path fill="#102770" d="M 561.625 493.929688 C 561.34375 493.929688 561.082031 493.890625 560.796875 493.808594 C 508.589844 479.179688 455.65625 479.179688 403.449219 493.808594 C 402.542969 494.070312 401.558594 493.871094 400.8125 493.308594 C 400.066406 492.742188 399.625 491.835938 399.625 490.890625 L 399.625 241.125 C 399.625 239.859375 400.429688 238.710938 401.617188 238.289062 C 453.664062 219.558594 506.4375 219.074219 558.484375 236.839844 C 562.167969 238.089844 564.644531 241.527344 564.644531 245.390625 L 564.644531 490.914062 C 564.644531 491.859375 564.203125 492.742188 563.457031 493.328125 C 562.914062 493.730469 562.269531 493.929688 561.625 493.929688 Z M 405.664062 243.257812 L 405.664062 486.949219 C 456.421875 473.40625 507.84375 473.40625 558.605469 486.949219 L 558.605469 245.390625 C 558.605469 244.105469 557.777344 242.957031 556.53125 242.535156 C 506.476562 225.472656 455.738281 225.714844 405.664062 243.257812 Z M 405.664062 243.257812 " fill-opacity="1" fill-rule="nonzero"/><path fill="#ffffff" d="M 243.664062 490.914062 C 296.65625 476.0625 349.652344 476.0625 402.644531 490.914062 L 402.644531 241.125 C 349.652344 222.050781 296.65625 222.050781 243.664062 241.125 Z M 243.664062 490.914062 " fill-opacity="1" fill-rule="nonzero"/><path fill="#102770" d="M 402.644531 493.929688 C 402.363281 493.929688 402.101562 493.890625 401.820312 493.808594 C 349.609375 479.160156 296.679688 479.179688 244.46875 493.808594 C 243.5625 494.070312 242.578125 493.871094 241.832031 493.308594 C 241.085938 492.742188 240.644531 491.835938 240.644531 490.890625 L 240.644531 245.390625 C 240.644531 241.527344 243.121094 238.089844 246.804688 236.839844 C 298.851562 219.09375 351.625 219.578125 403.671875 238.289062 C 404.878906 238.710938 405.664062 239.859375 405.664062 241.125 L 405.664062 490.914062 C 405.664062 491.859375 405.222656 492.742188 404.476562 493.328125 C 403.933594 493.730469 403.289062 493.929688 402.644531 493.929688 Z M 323.15625 476.808594 C 348.703125 476.808594 374.234375 480.1875 399.625 486.96875 L 399.625 243.257812 C 349.550781 225.714844 298.8125 225.472656 248.757812 242.535156 C 247.53125 242.957031 246.683594 244.105469 246.683594 245.390625 L 246.683594 486.949219 C 272.074219 480.1875 297.605469 476.808594 323.15625 476.808594 Z M 323.15625 476.808594 " fill-opacity="1" fill-rule="nonzero"/><path fill="#102770" d="M 425.960938 284.46875 C 424.832031 284.46875 423.804688 283.703125 423.523438 282.578125 C 423.179688 281.226562 423.988281 279.859375 425.335938 279.519531 C 439.992188 275.796875 454.871094 273.480469 469.550781 272.65625 C 470.941406 272.578125 472.128906 273.644531 472.207031 275.03125 C 472.289062 276.417969 471.222656 277.605469 469.832031 277.6875 C 455.476562 278.492188 440.941406 280.746094 426.582031 284.40625 C 426.363281 284.429688 426.160156 284.46875 425.960938 284.46875 Z M 425.960938 284.46875 " fill-opacity="1" fill-rule="nonzero"/><path fill="#102770" d="M 425.917969 309.277344 C 424.792969 309.277344 423.765625 308.511719 423.484375 307.386719 C 423.140625 306.039062 423.945312 304.667969 425.296875 304.328125 C 460.085938 295.472656 495.363281 294.789062 530.15625 302.253906 C 531.503906 302.558594 532.367188 303.886719 532.085938 305.234375 C 531.785156 306.582031 530.457031 307.445312 529.105469 307.164062 C 495.082031 299.839844 460.570312 300.523438 426.542969 309.175781 C 426.34375 309.257812 426.121094 309.277344 425.917969 309.277344 Z M 425.917969 309.277344 " fill-opacity="1" fill-rule="nonzero"/><path fill="#102770" d="M 425.917969 328.171875 C 424.792969 328.171875 423.765625 327.40625 423.484375 326.28125 C 423.140625 324.933594 423.945312 323.5625 425.296875 323.222656 C 460.085938 314.367188 495.363281 313.683594 530.15625 321.148438 C 531.503906 321.449219 532.367188 322.777344 532.085938 324.128906 C 531.785156 325.476562 530.457031 326.359375 529.105469 326.058594 C 495.082031 318.734375 460.570312 319.417969 426.542969 328.070312 C 426.34375 328.152344 426.121094 328.171875 425.917969 328.171875 Z M 425.917969 328.171875 " fill-opacity="1" fill-rule="nonzero"/><path fill="#102770" d="M 425.917969 347.066406 C 424.792969 347.066406 423.765625 346.300781 423.484375 345.175781 C 423.140625 343.824219 423.945312 342.457031 425.296875 342.117188 C 460.085938 333.261719 495.363281 332.578125 530.15625 340.042969 C 531.503906 340.34375 532.367188 341.671875 532.085938 343.019531 C 531.785156 344.367188 530.457031 345.253906 529.105469 344.953125 C 495.082031 337.628906 460.570312 338.3125 426.542969 346.964844 C 426.34375 347.023438 426.121094 347.066406 425.917969 347.066406 Z M 425.917969 347.066406 " fill-opacity="1" fill-rule="nonzero"/><path fill="#102770" d="M 425.917969 384.570312 C 424.792969 384.570312 423.765625 383.808594 423.484375 382.679688 C 423.140625 381.332031 423.945312 379.964844 425.296875 379.621094 C 443.234375 375.054688 461.4375 372.640625 479.375 372.417969 C 480.785156 372.417969 481.914062 373.503906 481.933594 374.894531 C 481.953125 376.28125 480.84375 377.429688 479.457031 377.449219 C 461.898438 377.667969 444.101562 380.042969 426.542969 384.511719 C 426.34375 384.550781 426.121094 384.570312 425.917969 384.570312 Z M 425.917969 384.570312 " fill-opacity="1" fill-rule="nonzero"/><path fill="#102770" d="M 425.917969 404.773438 C 424.792969 404.773438 423.765625 404.007812 423.484375 402.882812 C 423.140625 401.535156 423.945312 400.164062 425.296875 399.824219 C 443.234375 395.253906 461.4375 392.839844 479.375 392.621094 C 480.785156 392.601562 481.914062 393.707031 481.933594 395.09375 C 481.953125 396.484375 480.84375 397.628906 479.457031 397.648438 C 461.898438 397.871094 444.101562 400.246094 426.542969 404.710938 C 426.34375 404.753906 426.121094 404.773438 425.917969 404.773438 Z M 425.917969 404.773438 " fill-opacity="1" fill-rule="nonzero"/><path fill="#102770" d="M 378.261719 404.773438 C 378.058594 404.773438 377.839844 404.753906 377.636719 404.691406 C 360.082031 400.226562 342.28125 397.851562 324.726562 397.628906 C 323.335938 397.609375 322.226562 396.484375 322.25 395.074219 C 322.269531 393.6875 323.394531 392.601562 324.765625 392.601562 C 324.785156 392.601562 324.785156 392.601562 324.804688 392.601562 C 342.746094 392.820312 360.945312 395.253906 378.886719 399.804688 C 380.234375 400.144531 381.039062 401.511719 380.699219 402.863281 C 380.394531 404.027344 379.367188 404.773438 378.261719 404.773438 Z M 378.261719 404.773438 " fill-opacity="1" fill-rule="nonzero"/><path fill="#102770" d="M 378.261719 424.976562 C 378.058594 424.976562 377.839844 424.953125 377.636719 424.894531 C 360.082031 420.425781 342.28125 418.054688 324.726562 417.832031 C 323.335938 417.8125 322.226562 416.683594 322.25 415.277344 C 322.269531 413.886719 323.394531 412.800781 324.765625 412.800781 C 324.785156 412.800781 324.785156 412.800781 324.804688 412.800781 C 342.746094 413.023438 360.945312 415.457031 378.886719 420.003906 C 380.234375 420.347656 381.039062 421.714844 380.699219 423.0625 C 380.394531 424.230469 379.367188 424.976562 378.261719 424.976562 Z M 378.261719 424.976562 " fill-opacity="1" fill-rule="nonzero"/><path fill="#102770" d="M 560.558594 492.925781 L 560.035156 493.265625 L 540.484375 504.917969 L 413.457031 504.917969 C 413.457031 504.917969 413.597656 505.300781 413.820312 505.964844 L 409.429688 500.148438 L 403.390625 497.894531 L 403.390625 490.953125 L 412.046875 491.074219 C 457.953125 477.550781 511.511719 477.613281 560.558594 492.925781 Z M 560.558594 492.925781 " fill-opacity="0.298" fill-rule="nonzero"/><path fill="#282e6a" d="M 561.605469 493.246094 L 560.011719 493.246094 L 560.558594 492.902344 C 560.917969 493.023438 561.261719 493.144531 561.605469 493.246094 Z M 561.605469 493.246094 " fill-opacity="0.298" fill-rule="nonzero"/><path fill="#102770" d="M 351.503906 467.210938 C 351.503906 470.628906 354.039062 473.507812 357.441406 473.929688 C 372.160156 475.761719 386.859375 478.738281 401.578125 482.863281 L 401.578125 247.164062 C 385.429688 241.347656 369.28125 237.304688 353.113281 235.03125 C 352.289062 234.910156 351.542969 235.574219 351.542969 236.398438 Z M 351.503906 467.210938 " fill-opacity="0.298" fill-rule="nonzero"/><path fill="#102770" d="M 267.84375 245.574219 L 267.84375 473.042969 C 267.84375 475.277344 266.273438 477.191406 264.082031 477.632812 C 256.992188 479.082031 249.90625 480.8125 242.820312 482.804688 L 242.820312 247.101562 C 249.203125 244.808594 255.5625 242.796875 261.945312 241.046875 C 264.90625 240.222656 267.84375 242.476562 267.84375 245.574219 Z M 267.84375 245.574219 " fill-opacity="0.298" fill-rule="nonzero"/><path fill="#6157a4" d="M 640.289062 560.332031 C 587.65625 582.683594 537.925781 580.691406 484.429688 560.027344 C 479.296875 558.035156 476.035156 552.964844 476.296875 547.453125 L 478.429688 519.363281 L 478.628906 516.707031 L 479.496094 505.359375 L 480.625 490.367188 L 481.773438 474.976562 L 641.757812 474.976562 L 643.128906 490.550781 L 644.417969 505.15625 L 645.402344 516.464844 L 645.726562 520.1875 L 648.140625 547.714844 C 648.441406 553.148438 645.300781 558.199219 640.289062 560.332031 Z M 640.289062 560.332031 " fill-opacity="1" fill-rule="nonzero"/><path fill="#ffffff" d="M 640.289062 562.34375 C 587.65625 584.699219 537.925781 582.707031 484.429688 562.039062 C 483.441406 561.660156 482.515625 561.15625 481.671875 560.550781 C 533.296875 579.464844 581.578125 579.667969 632.578125 557.996094 C 637.589844 555.863281 640.75 550.8125 640.410156 545.378906 L 637.992188 518.859375 L 637.671875 515.136719 L 636.683594 503.832031 L 635.417969 489.222656 L 634.328125 476.988281 L 641.757812 476.988281 L 643.128906 492.5625 L 644.414062 507.171875 L 645.402344 518.476562 L 645.726562 522.199219 L 648.140625 549.726562 C 648.441406 555.160156 645.300781 560.210938 640.289062 562.34375 Z M 640.289062 562.34375 " fill-opacity="0.5686" fill-rule="nonzero"/><path fill="#102770" d="M 643.550781 495.601562 L 640.488281 495.601562 L 627.484375 510.1875 L 564.464844 528.941406 C 562.589844 529.503906 560.597656 529.503906 558.746094 528.941406 L 538.710938 522.984375 C 534.964844 521.878906 531.140625 524.496094 530.859375 528.398438 L 529.410156 547.472656 C 529.148438 552.988281 532.390625 558.058594 537.542969 560.050781 C 555.746094 567.070312 573.484375 571.941406 591.058594 574.414062 C 555.867188 579.585938 521.011719 574.175781 484.429688 560.050781 C 479.296875 558.058594 476.035156 552.988281 476.296875 547.472656 L 478.429688 519.382812 L 478.628906 516.726562 L 479.496094 505.378906 L 480.625 490.390625 L 481.773438 474.996094 L 483.5625 451.3125 L 536.679688 451.3125 L 534.886719 474.996094 L 641.738281 474.996094 L 643.105469 490.570312 Z M 643.550781 495.601562 " fill-opacity="0.298" fill-rule="nonzero"/><path fill="#102770" d="M 564.804688 579.34375 C 538.652344 579.34375 511.8125 573.851562 483.320312 562.847656 C 476.980469 560.390625 472.933594 554.152344 473.273438 547.3125 L 480.542969 451.050781 C 480.664062 449.484375 481.972656 448.253906 483.5625 448.253906 L 639.664062 448.253906 C 641.234375 448.253906 642.542969 449.441406 642.664062 451.011719 L 651.121094 547.433594 C 651.542969 554.195312 647.65625 560.453125 641.457031 563.085938 C 616.007812 573.933594 590.738281 579.34375 564.804688 579.34375 Z M 486.363281 454.292969 L 479.316406 547.675781 C 479.113281 551.839844 481.609375 555.683594 485.515625 557.210938 C 540.703125 578.519531 589.511719 578.640625 639.121094 557.554688 C 642.964844 555.925781 645.382812 552.039062 645.121094 547.894531 L 636.90625 454.3125 Z M 640.289062 560.332031 Z M 640.289062 560.332031 " fill-opacity="1" fill-rule="nonzero"/><path fill="#6157a4" d="M 681.582031 464.230469 L 681.582031 483.367188 L 561.625 519.0625 L 441.644531 483.367188 L 441.644531 464.230469 Z M 681.582031 464.230469 " fill-opacity="1" fill-rule="nonzero"/><path fill="#ffffff" d="M 681.582031 464.230469 L 681.582031 483.367188 L 673.773438 485.699219 L 673.773438 464.230469 Z M 681.582031 464.230469 " fill-opacity="0.5686" fill-rule="nonzero"/><path fill="#102770" d="M 561.605469 499.90625 L 561.605469 517.574219 L 562.53125 518.761719 L 561.605469 519.042969 L 441.644531 483.367188 L 441.644531 464.230469 L 593.980469 464.230469 C 556.027344 488.457031 561.605469 499.90625 561.605469 499.90625 Z M 561.605469 499.90625 " fill-opacity="0.298" fill-rule="nonzero"/><path fill="#102770" d="M 561.625 522.082031 C 561.34375 522.082031 561.039062 522.039062 560.757812 521.960938 L 440.796875 486.285156 C 439.511719 485.902344 438.644531 484.734375 438.644531 483.386719 L 438.644531 464.25 C 438.644531 462.582031 439.992188 461.234375 441.664062 461.234375 L 681.605469 461.234375 C 683.273438 461.234375 684.625 462.582031 684.625 464.25 L 684.625 483.386719 C 684.625 484.714844 683.738281 485.902344 682.46875 486.285156 L 562.511719 521.960938 C 562.1875 522.039062 561.90625 522.082031 561.625 522.082031 Z M 444.664062 481.113281 L 561.605469 515.902344 L 678.542969 481.113281 L 678.542969 467.25 L 444.664062 467.25 Z M 444.664062 481.113281 " fill-opacity="1" fill-rule="nonzero"/><path fill="#6157a4" d="M 681.582031 464.230469 L 561.625 499.90625 L 441.644531 464.230469 L 561.625 416.988281 Z M 681.582031 464.230469 " fill-opacity="1" fill-rule="nonzero"/><path fill="#6157a4" d="M 558.242188 498.902344 L 441.664062 464.230469 L 522.867188 432.238281 C 489.625 457.027344 509.578125 478.777344 558.242188 498.902344 Z M 558.242188 498.902344 " fill-opacity="1" fill-rule="nonzero"/><path fill="#ffffff" d="M 681.582031 464.230469 L 561.605469 499.90625 L 549.082031 496.183594 L 651.988281 465.578125 C 655.410156 464.554688 655.632812 459.785156 652.289062 458.476562 L 554.273438 419.863281 L 561.605469 416.964844 Z M 681.582031 464.230469 " fill-opacity="0.5686" fill-rule="nonzero"/><path fill="#102770" d="M 561.625 502.523438 C 560.417969 502.523438 559.207031 502.339844 558.019531 502 L 440.796875 467.128906 C 439.570312 466.765625 438.703125 465.660156 438.644531 464.371094 C 438.582031 463.085938 439.347656 461.898438 440.558594 461.433594 L 556.992188 415.578125 C 559.972656 414.410156 563.273438 414.410156 566.253906 415.578125 L 682.691406 461.433594 C 683.898438 461.898438 684.664062 463.085938 684.605469 464.371094 C 684.542969 465.660156 683.679688 466.765625 682.449219 467.128906 L 565.226562 502 C 564.039062 502.339844 562.832031 502.523438 561.625 502.523438 Z M 450.90625 463.828125 L 559.730469 496.203125 C 560.960938 496.566406 562.269531 496.566406 563.496094 496.203125 L 672.320312 463.828125 L 564.019531 421.171875 C 562.46875 420.566406 560.738281 420.566406 559.1875 421.171875 Z M 450.90625 463.828125 " fill-opacity="1" fill-rule="nonzero"/><path fill="#102770" d="M 576.625 454.050781 C 576.625 454.480469 576.527344 454.910156 576.335938 455.332031 C 576.144531 455.757812 575.859375 456.167969 575.480469 456.566406 C 575.105469 456.96875 574.644531 457.347656 574.097656 457.707031 C 573.550781 458.066406 572.925781 458.398438 572.230469 458.703125 C 571.535156 459.007812 570.777344 459.28125 569.957031 459.519531 C 569.140625 459.761719 568.273438 459.964844 567.363281 460.128906 C 566.453125 460.292969 565.515625 460.417969 564.550781 460.503906 C 563.585938 460.585938 562.609375 460.628906 561.625 460.628906 C 560.640625 460.628906 559.664062 460.585938 558.699219 460.503906 C 557.730469 460.417969 556.792969 460.292969 555.882812 460.128906 C 554.972656 459.964844 554.109375 459.761719 553.289062 459.519531 C 552.472656 459.28125 551.714844 459.007812 551.015625 458.703125 C 550.320312 458.398438 549.699219 458.066406 549.152344 457.707031 C 548.605469 457.347656 548.144531 456.96875 547.765625 456.566406 C 547.390625 456.167969 547.105469 455.757812 546.914062 455.332031 C 546.71875 454.910156 546.625 454.480469 546.625 454.050781 C 546.625 453.617188 546.71875 453.191406 546.914062 452.765625 C 547.105469 452.34375 547.390625 451.929688 547.765625 451.53125 C 548.144531 451.132812 548.605469 450.753906 549.152344 450.394531 C 549.699219 450.035156 550.320312 449.703125 551.015625 449.398438 C 551.714844 449.09375 552.472656 448.820312 553.289062 448.578125 C 554.109375 448.339844 554.972656 448.136719 555.882812 447.972656 C 556.792969 447.804688 557.730469 447.679688 558.699219 447.597656 C 559.664062 447.511719 560.640625 447.46875 561.625 447.46875 C 562.609375 447.46875 563.585938 447.511719 564.550781 447.597656 C 565.515625 447.679688 566.453125 447.804688 567.363281 447.972656 C 568.273438 448.136719 569.140625 448.339844 569.957031 448.578125 C 570.777344 448.820312 571.535156 449.09375 572.230469 449.398438 C 572.925781 449.703125 573.550781 450.035156 574.097656 450.394531 C 574.644531 450.753906 575.105469 451.132812 575.480469 451.53125 C 575.859375 451.929688 576.144531 452.34375 576.335938 452.765625 C 576.527344 453.191406 576.625 453.617188 576.625 454.050781 Z M 576.625 454.050781 " fill-opacity="1" fill-rule="nonzero"/><path fill="#102770" d="M 494.796875 579.34375 C 493.128906 579.34375 491.777344 577.996094 491.777344 576.328125 L 491.777344 480.046875 C 491.777344 478.800781 492.542969 477.691406 493.710938 477.230469 L 560.515625 451.234375 C 562.066406 450.628906 563.820312 451.394531 564.421875 452.945312 C 565.027344 454.492188 564.261719 456.242188 562.710938 456.847656 L 497.820312 482.097656 L 497.820312 576.308594 C 497.820312 577.996094 496.46875 579.34375 494.796875 579.34375 Z M 494.796875 579.34375 " fill-opacity="1" fill-rule="nonzero"/><g clip-path="url(#ab88497c95)"><path fill="#102770" d="M 501 601.378906 L 489.082031 601.378906 C 486.160156 601.378906 483.945312 598.722656 484.511719 595.84375 L 487.871094 578.199219 C 488.296875 576.003906 490.207031 574.414062 492.441406 574.414062 L 496.792969 574.414062 C 498.945312 574.414062 500.820312 575.90625 501.320312 577.996094 L 505.53125 595.644531 C 506.234375 598.582031 504.019531 601.378906 501 601.378906 Z M 501 601.378906 " fill-opacity="1" fill-rule="nonzero"/></g><path fill="#102770" d="M 558.242188 498.902344 L 441.664062 464.230469 L 522.867188 432.238281 C 489.625 457.027344 509.578125 478.777344 558.242188 498.902344 Z M 558.242188 498.902344 " fill-opacity="0.298" fill-rule="nonzero"/><path fill="#ff5722" d="M 320.496094 240.765625 L 329.859375 286.761719 L 306.703125 291.46875 L 297.320312 245.492188 L 310.589844 253.019531 Z M 320.496094 240.765625 " fill-opacity="1" fill-rule="nonzero"/><path fill="#ffffff" d="M 312.644531 261.8125 L 299.375 254.285156 L 306.945312 291.429688 L 306.683594 291.46875 L 297.320312 245.492188 L 310.589844 253.019531 L 320.496094 240.765625 L 322.347656 249.839844 Z M 312.644531 261.8125 " fill-opacity="0.5686" fill-rule="nonzero"/><path fill="#ff5722" d="M 315.644531 282.476562 L 304.347656 303.242188 L 263.09375 280.785156 L 278.253906 274.972656 L 274.410156 260.039062 Z M 315.644531 282.476562 " fill-opacity="1" fill-rule="nonzero"/><path fill="#ffffff" d="M 315.542969 282.675781 L 280.691406 263.722656 L 284.535156 278.671875 L 269.679688 284.367188 L 263.09375 280.785156 L 278.234375 274.972656 L 274.410156 260.039062 L 315.644531 282.476562 Z M 315.542969 282.675781 " fill-opacity="0.5686" fill-rule="nonzero"/><path fill="#102770" d="M 306.703125 294.488281 C 306.121094 294.488281 305.535156 294.308594 305.035156 293.984375 C 304.367188 293.542969 303.90625 292.859375 303.746094 292.074219 L 294.363281 246.078125 C 294.121094 244.910156 294.582031 243.722656 295.550781 243.039062 C 296.515625 242.335938 297.785156 242.273438 298.8125 242.855469 L 309.84375 249.113281 L 318.140625 238.875 C 318.886719 237.96875 320.074219 237.566406 321.203125 237.847656 C 322.328125 238.128906 323.214844 239.035156 323.4375 240.179688 L 332.796875 286.160156 C 333.140625 287.789062 332.074219 289.378906 330.441406 289.71875 L 307.269531 294.449219 C 307.105469 294.46875 306.90625 294.488281 306.703125 294.488281 Z M 301.609375 251.390625 L 309.058594 287.910156 L 326.316406 284.386719 L 318.824219 247.625 L 312.945312 254.890625 C 312.019531 256.035156 310.390625 256.339844 309.101562 255.613281 Z M 301.609375 251.390625 " fill-opacity="1" fill-rule="nonzero"/><path fill="#102770" d="M 304.347656 306.257812 C 303.84375 306.257812 303.34375 306.136719 302.898438 305.898438 L 261.644531 283.460938 C 260.617188 282.898438 259.992188 281.792969 260.074219 280.605469 C 260.15625 279.417969 260.898438 278.410156 262.007812 277.988281 L 274.628906 273.140625 L 271.46875 260.804688 C 271.167969 259.636719 271.589844 258.410156 272.535156 257.667969 C 273.484375 256.921875 274.773438 256.820312 275.839844 257.40625 L 317.074219 279.839844 C 318.542969 280.644531 319.085938 282.476562 318.28125 283.925781 L 306.988281 304.691406 C 306.605469 305.394531 305.960938 305.917969 305.195312 306.136719 C 304.933594 306.21875 304.628906 306.257812 304.347656 306.257812 Z M 270.300781 281.269531 L 303.160156 299.136719 L 311.578125 283.683594 L 279.082031 265.996094 L 281.195312 274.226562 C 281.578125 275.714844 280.792969 277.246094 279.34375 277.789062 Z M 270.300781 281.269531 " fill-opacity="1" fill-rule="nonzero"/><path fill="#ffffff" d="M 195.867188 365.578125 C 195.867188 365.578125 188.558594 352.578125 187.832031 328.734375 C 270.542969 308.171875 337.871094 262.757812 386.054688 186.355469 L 391.953125 200.582031 L 294.804688 316.480469 Z M 195.867188 365.578125 " fill-opacity="1" fill-rule="nonzero"/><path fill="#102770" d="M 387.058594 206.417969 L 294.804688 316.480469 L 195.867188 365.578125 C 195.867188 365.578125 188.535156 352.597656 187.832031 328.714844 C 267.261719 308.976562 332.515625 266.296875 380.234375 195.269531 C 382.347656 198.792969 384.886719 202.917969 387.058594 206.417969 Z M 387.058594 206.417969 " fill-opacity="0.298" fill-rule="nonzero"/><g clip-path="url(#3e6f4fe235)"><path fill="#102770" d="M 195.867188 368.59375 C 194.796875 368.59375 193.792969 368.03125 193.226562 367.066406 C 192.90625 366.503906 185.535156 353.140625 184.8125 328.816406 C 184.773438 327.386719 185.71875 326.140625 187.105469 325.796875 C 271.652344 304.769531 337.730469 257.324219 383.515625 184.746094 C 384.121094 183.800781 385.1875 183.257812 386.335938 183.359375 C 387.464844 183.460938 388.429688 184.164062 388.871094 185.210938 L 394.773438 199.4375 C 395.195312 200.480469 395.011719 201.667969 394.289062 202.535156 L 297.140625 318.433594 C 296.878906 318.753906 296.535156 319.015625 296.175781 319.199219 L 197.214844 368.292969 C 196.773438 368.496094 196.308594 368.59375 195.867188 368.59375 Z M 190.953125 331.046875 C 191.738281 346.5 195.363281 356.945312 197.273438 361.492188 L 292.894531 314.046875 L 388.449219 200.039062 L 385.46875 192.835938 C 362.273438 228.351562 334.085938 257.96875 301.632812 280.925781 C 269.535156 303.625 232.308594 320.484375 190.953125 331.046875 Z M 190.953125 331.046875 " fill-opacity="1" fill-rule="nonzero"/></g><path fill="#ffffff" d="M 234.320312 360.828125 C 246.019531 376.644531 248.917969 394.332031 240.785156 400.328125 C 232.652344 406.324219 216.582031 398.375 204.886719 382.558594 C 193.1875 366.742188 190.289062 349.058594 198.421875 343.0625 C 203.777344 339.097656 212.636719 341.230469 221.375 347.6875 C 225.886719 351.007812 230.355469 355.476562 234.320312 360.828125 Z M 234.320312 360.828125 " fill-opacity="1" fill-rule="nonzero"/><path fill="#102770" d="M 243.160156 397.792969 C 234.542969 401.171875 220.1875 393.265625 209.496094 378.796875 C 199.148438 364.8125 195.683594 349.339844 200.65625 341.8125 C 206.074219 339.699219 213.765625 342.035156 221.375 347.6875 C 225.867188 351.007812 230.335938 355.476562 234.300781 360.828125 C 244.671875 374.8125 248.113281 390.265625 243.160156 397.792969 Z M 243.160156 397.792969 " fill-opacity="0.298" fill-rule="nonzero"/><path fill="#282e6a" d="M 234.203125 405.355469 C 230.757812 405.355469 226.914062 404.351562 222.84375 402.339844 C 215.636719 398.777344 208.410156 392.398438 202.46875 384.371094 C 196.53125 376.339844 192.542969 367.570312 191.253906 359.640625 C 189.84375 351.007812 191.757812 344.269531 196.652344 340.648438 C 202.992188 335.957031 212.917969 337.6875 223.207031 345.273438 C 228.058594 348.855469 232.75 353.625 236.757812 359.039062 C 242.699219 367.066406 246.683594 375.839844 247.972656 383.765625 C 249.382812 392.398438 247.46875 399.140625 242.597656 402.761719 C 240.242188 404.472656 237.402344 405.355469 234.203125 405.355469 Z M 205.007812 344.085938 C 203.113281 344.085938 201.484375 344.550781 200.234375 345.476562 C 197.296875 347.648438 196.207031 352.4375 197.214844 358.636719 C 198.363281 365.636719 201.945312 373.484375 207.320312 380.75 C 212.699219 388.011719 219.160156 393.746094 225.523438 396.90625 C 231.160156 399.703125 236.074219 400.042969 238.992188 397.890625 C 241.914062 395.738281 243.019531 390.929688 241.992188 384.730469 C 240.84375 377.730469 237.261719 369.882812 231.886719 362.617188 C 228.222656 357.667969 223.972656 353.363281 219.605469 350.125 C 214.289062 346.179688 209.054688 344.085938 205.007812 344.085938 Z M 205.007812 344.085938 " fill-opacity="1" fill-rule="nonzero"/><path fill="#ffffff" d="M 240.785156 400.328125 C 241.390625 399.742188 241.992188 399.160156 242.597656 398.574219 C 242.074219 399.21875 241.46875 399.824219 240.785156 400.328125 Z M 240.785156 400.328125 " fill-opacity="1" fill-rule="nonzero"/><path fill="#282e6a" d="M 240.785156 403.34375 C 239.917969 403.34375 239.074219 402.980469 238.488281 402.277344 C 237.464844 401.070312 237.542969 399.261719 238.691406 398.152344 C 239.296875 397.550781 239.917969 396.964844 240.523438 396.382812 C 241.671875 395.296875 243.484375 395.277344 244.652344 396.34375 C 245.820312 397.410156 245.960938 399.21875 244.972656 400.445312 C 244.269531 401.3125 243.484375 402.097656 242.597656 402.742188 C 242.054688 403.144531 241.429688 403.34375 240.785156 403.34375 Z M 240.785156 403.34375 " fill-opacity="1" fill-rule="nonzero"/><path fill="#ffffff" d="M 198.441406 343.0625 C 199.1875 342.519531 199.992188 342.074219 200.859375 341.753906 C 200.054688 342.195312 199.25 342.617188 198.441406 343.0625 Z M 198.441406 343.0625 " fill-opacity="1" fill-rule="nonzero"/><path fill="#282e6a" d="M 198.441406 346.078125 C 197.4375 346.078125 196.449219 345.578125 195.886719 344.671875 C 195.039062 343.34375 195.363281 341.570312 196.652344 340.625 C 197.617188 339.921875 198.664062 339.339844 199.8125 338.917969 C 201.300781 338.371094 202.953125 339.058594 203.617188 340.503906 C 204.28125 341.953125 203.699219 343.644531 202.308594 344.410156 C 201.542969 344.832031 200.757812 345.253906 199.972656 345.65625 L 199.871094 345.71875 C 199.410156 345.957031 198.925781 346.078125 198.441406 346.078125 Z M 198.441406 346.078125 " fill-opacity="1" fill-rule="nonzero"/><path fill="#ffffff" d="M 244.589844 394.734375 C 231.925781 395.941406 210.363281 378.515625 206.515625 357.6875 L 223.066406 348.976562 C 237.503906 359.84375 244.691406 375.074219 244.589844 394.734375 Z M 244.589844 394.734375 " fill-opacity="1" fill-rule="nonzero"/><path fill="#102770" d="M 244.488281 390.628906 C 232.027344 387.75 215.578125 372.640625 211.871094 354.871094 L 223.046875 348.996094 C 236.476562 359.078125 243.625 372.941406 244.488281 390.628906 Z M 244.488281 390.628906 " fill-opacity="0.298" fill-rule="nonzero"/><path fill="#ffffff" d="M 435.824219 256.238281 C 418.691406 264.910156 401.335938 274.890625 384 285.875 C 351.925781 306.238281 319.972656 330.0625 289.914062 355.554688 C 278.699219 365.054688 267.785156 374.792969 257.195312 384.671875 C 252.300781 389.238281 247.449219 393.867188 242.617188 398.574219 C 248.375 391.371094 245.035156 375.296875 234.320312 360.828125 C 230.375 355.476562 225.90625 351.007812 221.394531 347.6875 C 213.84375 342.117188 206.234375 339.761719 200.839844 341.753906 C 219.382812 331.855469 237.765625 321.210938 255.683594 309.902344 C 288.039062 289.539062 318.945312 267.101562 346.773438 243.320312 C 363.582031 228.953125 379.269531 214.125 393.441406 198.953125 C 401.175781 193.238281 416.113281 200.179688 427.632812 214.507812 C 428.195312 215.230469 428.777344 215.957031 429.320312 216.699219 C 441.058594 232.535156 443.941406 250.242188 435.824219 256.238281 Z M 435.824219 256.238281 " fill-opacity="1" fill-rule="nonzero"/><path fill="#102770" d="M 429.363281 216.71875 C 429 216.238281 428.636719 215.753906 428.273438 215.269531 C 434.738281 228.089844 435.28125 240.363281 428.796875 245.152344 C 411.664062 253.824219 394.308594 263.804688 376.972656 274.789062 C 375.84375 275.515625 374.71875 276.21875 373.589844 276.960938 C 366.90625 281.269531 357.90625 279.457031 353.558594 272.816406 C 348.945312 265.816406 346.691406 255.976562 346.8125 243.320312 C 318.988281 267.101562 288.058594 289.539062 255.726562 309.902344 C 271.46875 313.644531 280.933594 320.464844 285.867188 329.5 C 288.605469 334.488281 287.296875 340.746094 282.964844 344.429688 L 282.90625 344.488281 C 271.691406 353.988281 260.777344 363.726562 250.1875 373.605469 C 248.09375 375.558594 246 377.527344 243.925781 379.5 C 246.242188 387.449219 245.917969 394.449219 242.636719 398.554688 C 247.488281 393.847656 252.34375 389.21875 257.214844 384.652344 C 267.804688 374.773438 278.71875 365.035156 289.933594 355.535156 C 319.992188 330.042969 351.945312 306.21875 384.019531 285.855469 C 401.355469 274.871094 418.710938 264.890625 435.84375 256.21875 C 443.941406 250.242188 441.058594 232.535156 429.363281 216.71875 Z M 429.363281 216.71875 " fill-opacity="0.298" fill-rule="nonzero"/><path fill="#102770" d="M 242.597656 401.59375 C 241.871094 401.59375 241.148438 401.332031 240.5625 400.808594 C 239.375 399.742188 239.234375 397.933594 240.242188 396.683594 C 244.550781 391.3125 242.597656 377.105469 231.886719 362.617188 C 228.222656 357.667969 223.972656 353.363281 219.605469 350.125 C 212.777344 345.074219 206.175781 343.019531 201.90625 344.589844 C 200.417969 345.132812 198.765625 344.449219 198.101562 343 C 197.457031 341.550781 198.039062 339.839844 199.429688 339.097656 C 275.175781 298.671875 343.308594 248.167969 391.269531 196.921875 C 391.390625 196.78125 391.53125 196.660156 391.671875 196.558594 C 400.773438 189.835938 417.261719 196.757812 430.007812 212.65625 C 430.609375 213.398438 431.195312 214.164062 431.777344 214.949219 C 437.71875 222.976562 441.703125 231.75 442.992188 239.679688 C 444.402344 248.308594 442.488281 255.050781 437.617188 258.671875 C 437.476562 258.773438 437.335938 258.855469 437.195312 258.933594 C 379.550781 288.171875 316.347656 333.605469 259.25 386.886719 C 254.417969 391.414062 249.523438 396.0625 244.710938 400.730469 C 244.128906 401.292969 243.363281 401.59375 242.597656 401.59375 Z M 211.871094 339.21875 C 215.496094 340.386719 219.34375 342.417969 223.1875 345.273438 C 228.039062 348.855469 232.730469 353.625 236.738281 359.039062 C 244.25 369.179688 248.316406 380.105469 248.394531 388.816406 C 250.652344 386.683594 252.886719 384.570312 255.121094 382.480469 C 312.542969 328.894531 376.128906 283.160156 434.214844 253.683594 C 437.011719 251.449219 438.039062 246.742188 437.054688 240.664062 C 435.90625 233.660156 432.320312 225.816406 426.945312 218.550781 C 426.421875 217.828125 425.878906 217.140625 425.316406 216.457031 C 415.085938 203.703125 401.777344 196.980469 395.476562 201.285156 C 349.128906 250.726562 284.234375 299.457031 211.871094 339.21875 Z M 435.824219 256.238281 Z M 435.824219 256.238281 " fill-opacity="1" fill-rule="nonzero"/><path fill="#ff5722" d="M 351.703125 307.445312 L 323.757812 328.089844 C 315.625 312.09375 305.113281 297.867188 292.1875 285.414062 L 320.132812 264.769531 C 334.570312 277.125 345.503906 291.148438 351.703125 307.445312 Z M 351.703125 307.445312 " fill-opacity="1" fill-rule="nonzero"/><path fill="#ffffff" d="M 318.503906 318.59375 C 320.515625 321.570312 322.449219 324.609375 324.261719 327.730469 L 323.738281 328.109375 C 322.085938 324.851562 320.355469 321.691406 318.503906 318.59375 Z M 318.503906 318.59375 " fill-opacity="0.5686" fill-rule="nonzero"/><path fill="#ffffff" d="M 345.867188 295.09375 C 340.226562 287.082031 333.28125 279.71875 325.269531 272.859375 L 298.914062 292.316406 C 296.738281 289.960938 294.503906 287.648438 292.167969 285.414062 L 320.113281 264.75 C 330.785156 273.882812 339.523438 283.90625 345.867188 295.09375 Z M 345.867188 295.09375 " fill-opacity="0.5686" fill-rule="nonzero"/><path fill="#ffffff" d="M 318.503906 318.59375 C 312.363281 309.558594 305.296875 301.207031 297.320312 293.503906 L 298.933594 292.316406 C 306.363281 300.402344 312.886719 309.15625 318.503906 318.59375 Z M 318.503906 318.59375 " fill-opacity="0.5686" fill-rule="nonzero"/><path fill="#102770" d="M 351.703125 307.445312 L 323.738281 328.109375 C 321.542969 323.785156 319.167969 319.558594 316.589844 315.476562 L 343.347656 295.714844 C 341.394531 290.585938 338.960938 285.65625 336.101562 280.945312 C 342.765625 289.074219 348.058594 297.867188 351.703125 307.445312 Z M 351.703125 307.445312 " fill-opacity="0.298" fill-rule="nonzero"/><path fill="#102770" d="M 323.757812 331.128906 C 323.515625 331.128906 323.296875 331.109375 323.054688 331.046875 C 322.1875 330.847656 321.464844 330.265625 321.058594 329.480469 C 313.128906 313.863281 302.699219 299.761719 290.074219 287.605469 C 289.429688 286.984375 289.105469 286.117188 289.148438 285.234375 C 289.1875 284.347656 289.652344 283.523438 290.375 283 L 318.320312 262.355469 C 319.449219 261.507812 321.019531 261.570312 322.085938 262.496094 C 337.773438 275.917969 348.382812 290.261719 354.523438 306.398438 C 355.007812 307.667969 354.582031 309.097656 353.496094 309.902344 L 325.550781 330.546875 C 325.027344 330.90625 324.402344 331.128906 323.757812 331.128906 Z M 296.820312 285.753906 C 307.953125 296.964844 317.335938 309.660156 324.804688 323.582031 L 348.039062 306.421875 C 342.402344 292.71875 333.203125 280.324219 319.972656 268.652344 Z M 296.820312 285.753906 " fill-opacity="1" fill-rule="nonzero"/><path fill="#282e6a" d="M 243.320312 397.8125 C 228.703125 397.8125 207.464844 379.460938 203.535156 358.234375 C 203.296875 356.925781 203.941406 355.636719 205.105469 355.011719 L 221.65625 346.300781 C 223.128906 345.515625 224.960938 346.097656 225.746094 347.566406 C 226.53125 349.039062 225.945312 350.867188 224.476562 351.652344 L 209.941406 359.300781 C 214.628906 378.113281 234.140625 392.699219 244.289062 391.734375 C 245.960938 391.574219 247.429688 392.800781 247.589844 394.449219 C 247.75 396.101562 246.523438 397.589844 244.871094 397.75 C 244.367188 397.792969 243.84375 397.8125 243.320312 397.8125 Z M 243.320312 397.8125 " fill-opacity="1" fill-rule="nonzero"/><path fill="#19b5fe" d="M 174.019531 276.015625 C 173.839844 275.996094 173.699219 276.039062 173.578125 276.136719 C 173.578125 276.15625 173.558594 276.15625 173.558594 276.179688 L 165.582031 278.714844 C 163.972656 279.238281 162.320312 278.070312 162.203125 276.378906 C 162.058594 273.683594 161.558594 270.886719 159.019531 267.949219 C 152.636719 260.542969 146.839844 265.535156 140.476562 258.128906 C 134.09375 250.726562 139.914062 245.734375 133.53125 238.328125 C 131.878906 236.417969 130.269531 235.332031 128.679688 234.648438 C 126.683594 233.78125 126 231.308594 127.308594 229.578125 L 131.558594 224.023438 C 132.34375 222.996094 133.632812 222.515625 134.878906 222.796875 C 138.382812 223.5625 141.867188 223.722656 145.53125 227.96875 C 151.914062 235.371094 146.09375 240.363281 152.476562 247.765625 C 158.859375 255.171875 164.65625 250.179688 171.039062 257.585938 C 176.253906 263.640625 173.917969 267.125 175.710938 272.777344 C 176.113281 274.144531 175.367188 275.59375 174.019531 276.015625 Z M 174.019531 276.015625 " fill-opacity="1" fill-rule="nonzero"/><path fill="#ffca28" d="M 112.570312 549.484375 L 111.242188 542.363281 C 110.878906 540.410156 111.964844 538.457031 113.839844 537.835938 C 114.523438 537.613281 115.226562 537.3125 115.953125 536.929688 C 124.589844 532.34375 120.988281 525.601562 129.625 521.015625 C 138.242188 516.425781 141.84375 523.1875 150.464844 518.597656 C 155.699219 515.824219 156.441406 512.242188 158.132812 508.839844 C 159.964844 505.179688 165.222656 505.199219 166.992188 508.878906 L 169.1875 513.449219 C 170.113281 515.339844 169.691406 517.613281 168.203125 519.082031 C 163.8125 523.40625 165.121094 528.742188 157.933594 532.5625 C 149.316406 537.152344 145.710938 530.390625 137.09375 534.976562 C 128.457031 539.566406 132.058594 546.328125 123.421875 550.894531 C 120.625 552.382812 118.46875 552.804688 116.535156 552.785156 C 114.582031 552.804688 112.914062 551.398438 112.570312 549.484375 Z M 112.570312 549.484375 " fill-opacity="1" fill-rule="nonzero"/><path fill="#ff5722" d="M 712.429688 226.839844 L 712.007812 234.085938 C 711.886719 236.054688 710.375 237.707031 708.402344 237.867188 C 707.699219 237.925781 706.933594 238.046875 706.128906 238.25 C 696.664062 240.644531 698.535156 248.046875 689.054688 250.441406 C 679.589844 252.835938 677.699219 245.414062 668.234375 247.808594 C 662.476562 249.253906 660.925781 252.554688 658.449219 255.453125 C 655.792969 258.570312 650.699219 257.304688 649.851562 253.300781 L 648.824219 248.332031 C 648.382812 246.257812 649.328125 244.164062 651.140625 243.078125 C 656.4375 239.917969 656.4375 234.425781 664.328125 232.433594 C 673.792969 230.039062 675.683594 237.464844 685.148438 235.070312 C 694.628906 232.675781 692.757812 225.25 702.222656 222.855469 C 705.300781 222.070312 707.476562 222.171875 709.347656 222.65625 C 711.261719 223.160156 712.550781 224.910156 712.429688 226.839844 Z M 712.429688 226.839844 " fill-opacity="1" fill-rule="nonzero"/><path fill="#19b5fe" d="M 146.679688 360.789062 C 146.679688 361.183594 146.640625 361.578125 146.5625 361.964844 C 146.484375 362.355469 146.371094 362.730469 146.21875 363.097656 C 146.066406 363.464844 145.878906 363.8125 145.660156 364.140625 C 145.441406 364.472656 145.1875 364.777344 144.910156 365.054688 C 144.628906 365.335938 144.324219 365.585938 143.992188 365.808594 C 143.664062 366.027344 143.316406 366.214844 142.949219 366.363281 C 142.582031 366.515625 142.203125 366.632812 141.816406 366.707031 C 141.425781 366.785156 141.035156 366.824219 140.636719 366.824219 C 140.242188 366.824219 139.847656 366.785156 139.460938 366.707031 C 139.070312 366.632812 138.691406 366.515625 138.324219 366.363281 C 137.960938 366.214844 137.613281 366.027344 137.28125 365.808594 C 136.953125 365.585938 136.648438 365.335938 136.367188 365.054688 C 136.085938 364.777344 135.835938 364.472656 135.617188 364.140625 C 135.394531 363.8125 135.207031 363.464844 135.058594 363.097656 C 134.90625 362.730469 134.789062 362.355469 134.714844 361.964844 C 134.636719 361.578125 134.597656 361.183594 134.597656 360.789062 C 134.597656 360.390625 134.636719 360 134.714844 359.609375 C 134.789062 359.222656 134.90625 358.84375 135.058594 358.476562 C 135.207031 358.113281 135.394531 357.765625 135.617188 357.433594 C 135.835938 357.105469 136.085938 356.800781 136.367188 356.519531 C 136.648438 356.238281 136.953125 355.988281 137.28125 355.769531 C 137.613281 355.546875 137.960938 355.363281 138.324219 355.210938 C 138.691406 355.058594 139.070312 354.945312 139.460938 354.867188 C 139.847656 354.789062 140.242188 354.75 140.636719 354.75 C 141.035156 354.75 141.425781 354.789062 141.816406 354.867188 C 142.203125 354.945312 142.582031 355.058594 142.949219 355.210938 C 143.316406 355.363281 143.664062 355.546875 143.992188 355.769531 C 144.324219 355.988281 144.628906 356.238281 144.910156 356.519531 C 145.1875 356.800781 145.441406 357.105469 145.660156 357.433594 C 145.878906 357.765625 146.066406 358.113281 146.21875 358.476562 C 146.371094 358.84375 146.484375 359.222656 146.5625 359.609375 C 146.640625 360 146.679688 360.390625 146.679688 360.789062 Z M 146.679688 360.789062 " fill-opacity="1" fill-rule="nonzero"/><path fill="#ff5722" d="M 634.207031 315.171875 C 634.207031 315.449219 634.179688 315.726562 634.125 315.996094 C 634.074219 316.269531 633.992188 316.535156 633.886719 316.789062 C 633.78125 317.046875 633.648438 317.289062 633.496094 317.519531 C 633.339844 317.75 633.164062 317.964844 632.96875 318.160156 C 632.773438 318.355469 632.558594 318.53125 632.328125 318.6875 C 632.097656 318.839844 631.855469 318.972656 631.597656 319.078125 C 631.339844 319.183594 631.078125 319.261719 630.804688 319.316406 C 630.53125 319.371094 630.257812 319.398438 629.980469 319.398438 C 629.703125 319.398438 629.425781 319.371094 629.15625 319.316406 C 628.882812 319.261719 628.617188 319.183594 628.363281 319.078125 C 628.105469 318.972656 627.863281 318.839844 627.628906 318.6875 C 627.398438 318.53125 627.1875 318.355469 626.988281 318.160156 C 626.792969 317.964844 626.617188 317.75 626.464844 317.519531 C 626.308594 317.289062 626.179688 317.046875 626.074219 316.789062 C 625.96875 316.535156 625.886719 316.269531 625.832031 315.996094 C 625.777344 315.726562 625.75 315.449219 625.75 315.171875 C 625.75 314.894531 625.777344 314.621094 625.832031 314.347656 C 625.886719 314.078125 625.96875 313.8125 626.074219 313.554688 C 626.179688 313.300781 626.308594 313.054688 626.464844 312.824219 C 626.617188 312.59375 626.792969 312.382812 626.988281 312.183594 C 627.1875 311.988281 627.398438 311.8125 627.628906 311.660156 C 627.863281 311.503906 628.105469 311.375 628.363281 311.269531 C 628.617188 311.164062 628.882812 311.082031 629.15625 311.027344 C 629.425781 310.976562 629.703125 310.949219 629.980469 310.949219 C 630.257812 310.949219 630.53125 310.976562 630.804688 311.027344 C 631.078125 311.082031 631.339844 311.164062 631.597656 311.269531 C 631.855469 311.375 632.097656 311.503906 632.328125 311.660156 C 632.558594 311.8125 632.773438 311.988281 632.96875 312.183594 C 633.164062 312.382812 633.339844 312.59375 633.496094 312.824219 C 633.648438 313.054688 633.78125 313.300781 633.886719 313.554688 C 633.992188 313.8125 634.074219 314.078125 634.125 314.347656 C 634.179688 314.621094 634.207031 314.894531 634.207031 315.171875 Z M 634.207031 315.171875 " fill-opacity="1" fill-rule="nonzero"/><path fill="#ff5722" d="M 166.851562 441.171875 C 166.851562 441.449219 166.824219 441.726562 166.769531 441.996094 C 166.71875 442.269531 166.636719 442.53125 166.53125 442.789062 C 166.425781 443.046875 166.292969 443.289062 166.140625 443.519531 C 165.984375 443.75 165.808594 443.964844 165.613281 444.160156 C 165.417969 444.355469 165.203125 444.53125 164.972656 444.6875 C 164.742188 444.839844 164.5 444.96875 164.242188 445.078125 C 163.984375 445.183594 163.722656 445.261719 163.449219 445.316406 C 163.175781 445.371094 162.902344 445.398438 162.625 445.398438 C 162.347656 445.398438 162.070312 445.371094 161.800781 445.316406 C 161.527344 445.261719 161.261719 445.183594 161.007812 445.078125 C 160.75 444.96875 160.507812 444.839844 160.273438 444.6875 C 160.042969 444.53125 159.832031 444.355469 159.632812 444.160156 C 159.4375 443.964844 159.261719 443.75 159.109375 443.519531 C 158.953125 443.289062 158.824219 443.046875 158.71875 442.789062 C 158.613281 442.53125 158.53125 442.269531 158.476562 441.996094 C 158.421875 441.726562 158.394531 441.449219 158.394531 441.171875 C 158.394531 440.894531 158.421875 440.621094 158.476562 440.347656 C 158.53125 440.074219 158.613281 439.8125 158.71875 439.554688 C 158.824219 439.300781 158.953125 439.054688 159.109375 438.824219 C 159.261719 438.59375 159.4375 438.378906 159.632812 438.183594 C 159.832031 437.988281 160.042969 437.8125 160.273438 437.660156 C 160.507812 437.503906 160.75 437.375 161.007812 437.269531 C 161.261719 437.164062 161.527344 437.082031 161.800781 437.027344 C 162.070312 436.972656 162.347656 436.945312 162.625 436.945312 C 162.902344 436.945312 163.175781 436.972656 163.449219 437.027344 C 163.722656 437.082031 163.984375 437.164062 164.242188 437.269531 C 164.5 437.375 164.742188 437.503906 164.972656 437.660156 C 165.203125 437.8125 165.417969 437.988281 165.613281 438.183594 C 165.808594 438.378906 165.984375 438.59375 166.140625 438.824219 C 166.292969 439.054688 166.425781 439.300781 166.53125 439.554688 C 166.636719 439.8125 166.71875 440.074219 166.769531 440.347656 C 166.824219 440.621094 166.851562 440.894531 166.851562 441.171875 Z M 166.851562 441.171875 " fill-opacity="1" fill-rule="nonzero"/><path fill="#19b5fe" d="M 671.898438 387.429688 C 671.898438 387.957031 671.847656 388.484375 671.742188 389.003906 C 671.640625 389.523438 671.488281 390.027344 671.285156 390.515625 C 671.082031 391.003906 670.832031 391.472656 670.539062 391.910156 C 670.242188 392.351562 669.910156 392.757812 669.535156 393.132812 C 669.160156 393.507812 668.75 393.84375 668.3125 394.136719 C 667.871094 394.433594 667.40625 394.679688 666.914062 394.882812 C 666.425781 395.085938 665.921875 395.238281 665.402344 395.34375 C 664.878906 395.445312 664.355469 395.496094 663.824219 395.496094 C 663.296875 395.496094 662.769531 395.445312 662.25 395.34375 C 661.730469 395.238281 661.226562 395.085938 660.734375 394.882812 C 660.246094 394.679688 659.78125 394.433594 659.339844 394.136719 C 658.898438 393.84375 658.492188 393.507812 658.117188 393.132812 C 657.742188 392.757812 657.40625 392.351562 657.113281 391.910156 C 656.816406 391.472656 656.570312 391.003906 656.367188 390.515625 C 656.164062 390.027344 656.011719 389.523438 655.90625 389.003906 C 655.804688 388.484375 655.75 387.957031 655.75 387.429688 C 655.75 386.898438 655.804688 386.375 655.90625 385.855469 C 656.011719 385.335938 656.164062 384.832031 656.367188 384.339844 C 656.570312 383.851562 656.816406 383.386719 657.113281 382.945312 C 657.40625 382.503906 657.742188 382.097656 658.117188 381.722656 C 658.492188 381.347656 658.898438 381.015625 659.339844 380.71875 C 659.78125 380.425781 660.246094 380.175781 660.734375 379.972656 C 661.226562 379.769531 661.730469 379.617188 662.25 379.515625 C 662.769531 379.410156 663.296875 379.359375 663.824219 379.359375 C 664.355469 379.359375 664.878906 379.410156 665.402344 379.515625 C 665.921875 379.617188 666.425781 379.769531 666.914062 379.972656 C 667.40625 380.175781 667.871094 380.425781 668.3125 380.71875 C 668.75 381.015625 669.160156 381.347656 669.535156 381.722656 C 669.910156 382.097656 670.242188 382.503906 670.539062 382.945312 C 670.832031 383.386719 671.082031 383.851562 671.285156 384.339844 C 671.488281 384.832031 671.640625 385.335938 671.742188 385.855469 C 671.847656 386.375 671.898438 386.898438 671.898438 387.429688 Z M 671.898438 387.429688 " fill-opacity="1" fill-rule="nonzero"/></svg>