<svg xmlns="http://www.w3.org/2000/svg" xmlns:xlink="http://www.w3.org/1999/xlink" width="1080" zoomAndPan="magnify" viewBox="0 0 810 809.999993" height="1080" preserveAspectRatio="xMidYMid meet" version="1.0"><defs><clipPath id="5810567095"><path d="M 3 4 L 808 4 L 808 810 L 3 810 Z M 3 4 " clip-rule="nonzero"/></clipPath><clipPath id="6205af111a"><path d="M 399.203125 4.492188 C 177.5 8.84375 1.441406 191.53125 3.613281 413.363281 C 7.960938 635.199219 190.539062 811.363281 412.242188 809.1875 C 633.945312 804.839844 810.003906 622.152344 807.832031 400.316406 C 803.484375 178.480469 620.90625 0.144531 399.203125 4.492188 Z M 288.351562 71.914062 C 264.441406 104.535156 242.707031 145.859375 227.492188 193.703125 L 123.160156 193.703125 C 164.457031 139.332031 220.96875 95.835938 288.351562 71.914062 Z M 92.730469 241.550781 L 212.277344 241.550781 C 201.40625 285.046875 197.0625 332.894531 194.886719 382.917969 L 53.605469 382.917969 C 55.777344 332.894531 70.992188 285.046875 92.730469 241.550781 Z M 53.605469 430.765625 L 194.886719 430.765625 C 197.0625 480.785156 201.40625 528.632812 212.277344 572.128906 L 92.730469 572.128906 C 70.992188 528.632812 55.777344 480.785156 53.605469 430.765625 Z M 123.160156 617.800781 L 227.492188 617.800781 C 242.707031 665.648438 264.441406 709.144531 288.351562 739.59375 C 220.96875 715.671875 164.457031 674.347656 123.160156 617.800781 Z M 383.988281 756.992188 C 331.820312 739.59375 294.871094 669.996094 277.484375 617.800781 L 383.988281 617.800781 Z M 383.988281 572.128906 L 262.269531 572.128906 C 251.398438 528.632812 244.878906 480.785156 242.707031 430.765625 L 383.988281 430.765625 Z M 383.988281 382.917969 L 242.707031 382.917969 C 244.878906 332.894531 251.398438 285.046875 262.269531 241.550781 L 383.988281 241.550781 Z M 383.988281 193.703125 L 277.484375 193.703125 C 297.042969 141.507812 331.820312 71.914062 383.988281 54.515625 Z M 760.011719 382.917969 L 618.730469 382.917969 C 616.558594 332.894531 612.210938 285.046875 601.34375 241.550781 L 720.890625 241.550781 C 742.625 285.046875 757.839844 332.894531 760.011719 382.917969 Z M 690.460938 193.703125 L 586.128906 193.703125 C 570.914062 145.859375 549.179688 102.359375 525.269531 71.914062 C 592.648438 95.835938 649.160156 139.332031 690.460938 193.703125 Z M 429.632812 56.6875 C 481.796875 74.085938 518.746094 143.683594 536.136719 195.878906 L 429.632812 195.878906 Z M 429.632812 241.550781 L 551.351562 241.550781 C 562.21875 285.046875 568.738281 332.894531 570.914062 382.917969 L 429.632812 382.917969 Z M 429.632812 430.765625 L 570.914062 430.765625 C 568.738281 480.785156 562.21875 528.632812 551.351562 572.128906 L 429.632812 572.128906 Z M 429.632812 756.992188 L 429.632812 617.800781 L 536.136719 617.800781 C 518.75 669.996094 483.972656 739.59375 429.632812 756.992188 Z M 525.269531 739.59375 C 549.179688 706.96875 570.914062 665.648438 586.128906 617.800781 L 690.460938 617.800781 C 649.160156 674.347656 592.648438 715.671875 525.269531 739.59375 Z M 720.890625 572.128906 L 601.34375 572.128906 C 612.210938 528.632812 616.558594 480.785156 618.730469 430.765625 L 760.011719 430.765625 C 757.839844 480.785156 742.625 528.632812 720.890625 572.128906 Z M 720.890625 572.128906 " clip-rule="evenodd"/></clipPath></defs><g clip-path="url(#5810567095)"><g clip-path="url(#6205af111a)"><path fill="#000000" d="M 1.472656 0.144531 L 1.472656 810 L 809.972656 810 L 809.972656 0.144531 Z M 1.472656 0.144531 " fill-opacity="1" fill-rule="nonzero"/></g></g></svg>